<svg width="16" height="16" viewBox="0 0 16 16" fill="none" xmlns="http://www.w3.org/2000/svg">
<path fill-rule="evenodd" clip-rule="evenodd" d="M7.02215 15.3166L0.421696 12.2285C-0.140565 11.9589 -0.140565 11.5422 0.421696 11.2971L2.71963 10.2188L6.99771 12.2285C7.55997 12.4981 8.46448 12.4981 9.00229 12.2285L13.2804 10.2188L15.5783 11.2971C16.1406 11.5667 16.1406 11.9834 15.5783 12.2285L8.97785 15.3166C8.46448 15.5617 7.55997 15.5617 7.02215 15.3166Z" fill="#292A2E"/>
<path fill-rule="evenodd" clip-rule="evenodd" d="M7.00076 11.4943L0.420411 8.40257C-0.140137 8.13266 -0.140137 7.71552 0.420411 7.47015L2.6626 6.41504L7.00076 8.45165C7.56131 8.72156 8.46306 8.72156 8.99924 8.45165L13.3374 6.41504L15.5796 7.47015C16.1401 7.74006 16.1401 8.1572 15.5796 8.40257L8.99924 11.4943C8.43869 11.7642 7.53694 11.7642 7.00076 11.4943Z" fill="#292A2E"/>
<path fill-rule="evenodd" clip-rule="evenodd" d="M7.00076 7.71298L0.420411 4.66576C-0.140137 4.39973 -0.140137 3.98859 0.420411 3.74675L7.00076 0.699521C7.56131 0.433493 8.46306 0.433493 8.99924 0.699521L15.5796 3.74675C16.1401 4.01278 16.1401 4.42391 15.5796 4.66576L8.99924 7.71298C8.43869 7.95483 7.53694 7.95483 7.00076 7.71298Z" fill="#292A2E"/>
</svg>
