<svg width="226" height="125" viewBox="0 0 226 125" fill="none" xmlns="http://www.w3.org/2000/svg">
<path d="M187.593 116.038H89.5825V48.1841C89.5825 46.0955 91.1217 44.3955 93.0683 44.3955H128.47C130.28 44.3955 131.774 45.9012 131.955 47.844V51.6812L185.173 51.6812C186.44 51.6812 187.593 52.944 187.593 54.304V116.038Z" fill="#EFEFEF" stroke="#AAAAAA" stroke-width="2"/>
<path d="M67.1976 77.7885C65.9874 85.6812 66.0776 89.3257 70.8277 92.9666C74.0447 95.4323 80.2343 94.1733 82.9149 93.9046" stroke="#AAAAAA" stroke-width="2" stroke-linecap="round"/>
<path d="M206.621 77.181C207.831 85.0737 209.556 89.3256 204.806 92.9665C201.589 95.4323 195.399 94.1732 192.719 93.9045" stroke="#AAAAAA" stroke-width="2" stroke-linecap="round"/>
<path d="M206.32 76.7557C206.595 77.4929 207.514 77.9416 208.872 78.2407C210.69 78.6407 211.476 77.894 212.526 77.099" stroke="#AAAAAA" stroke-width="2" stroke-linecap="round"/>
<path d="M187.134 123.324H89.0313C87.3086 123.324 85.8729 121.984 85.7772 120.213L82.3225 67.4667C82.1789 65.5042 84.0384 63.7759 85.9526 63.8238H140.403L148.872 56.5381H190.617C193.642 56.5381 194.982 59.2793 194.791 61.2418L190.341 120.26C190.245 121.984 188.809 123.324 187.134 123.324Z" fill="#F9F9F9" stroke="#AAAAAA" stroke-width="2"/>
<path d="M217.472 17.205L210.555 15.3451C208.797 14.8723 207.684 13.1392 207.985 11.3432L208.01 11.1974C208.224 9.91926 209.166 8.88599 210.418 8.55535C211.959 8.14831 213.572 8.90271 214.251 10.3479L217.472 17.205Z" fill="#D9F4FF" stroke="#9ADAF3" stroke-width="2"/>
<path d="M217.472 20.1095L210.555 21.9693C208.797 22.4421 207.684 24.1752 207.985 25.9713L208.01 26.1171C208.224 27.3952 209.166 28.4285 210.418 28.7591C211.959 29.1661 213.572 28.4117 214.251 26.9666L217.472 20.1095Z" fill="#D9F4FF" stroke="#9ADAF3" stroke-width="2"/>
<ellipse cx="222.287" cy="18.9637" rx="2.42857" ry="2.42" transform="rotate(90 222.287 18.9637)" fill="#D9F4FF" stroke="#9ADAF3" stroke-width="2"/>
<path d="M35.3461 26.8163C40.5477 22.1874 48.195 18.9477 52.3489 17.3339C52.9006 17.1196 53.5106 17.4352 53.6633 18.0069L61.5154 47.4152C61.72 48.1814 60.9885 48.8792 60.2185 48.6916C49.2612 46.0219 39.2614 51.5578 29.0243 52.4015C20.7249 53.0856 12.5499 49.7915 7.3911 46.724C6.46985 46.1762 7.11818 44.2912 8.18271 44.1607C10.4012 43.8889 13.1927 43.2527 16.2292 42.0137C25.2662 38.3266 28.2608 33.1214 35.3461 26.8163Z" fill="#D9F4FF" stroke="#9ADAF3" stroke-width="2"/>
<ellipse cx="4.23601" cy="16.996" rx="4.23601" ry="16.996" transform="matrix(0.965696 -0.259674 0.257966 0.966154 49.1309 17.4526)" fill="#D9F4FF" stroke="#9ADAF3" stroke-width="2"/>
<path d="M46.2509 20.7412C45.8511 23.1534 45.4272 29.3854 46.9304 35.0153C48.4337 40.6453 51.8675 46.4685 52.8695 47.8752" stroke="#9ADAF3" stroke-width="2" stroke-linecap="round" stroke-dasharray="3 3"/>
<path d="M39.2405 24.5118C39.0355 26.8717 39.1556 31.7002 40.6588 37.3302C42.162 42.9602 44.7755 47.1183 45.6605 48.5565" stroke="#9ADAF3" stroke-width="2" stroke-linecap="round" stroke-dasharray="3 3"/>
<path d="M33.3218 28.6175C33.1168 30.9774 32.4562 34.7588 33.9594 40.3887C35.4626 46.0187 37.6063 48.4175 38.4914 49.8556" stroke="#9ADAF3" stroke-width="2" stroke-linecap="round" stroke-dasharray="3 3"/>
<path d="M27.4052 34.6087C26.7062 36.6823 26.7482 39.1853 27.8443 43.2904C29.3475 48.9204 31.0611 50.1777 31.9462 51.6159" stroke="#9ADAF3" stroke-width="2" stroke-linecap="round" stroke-dasharray="3 3"/>
<path d="M21.5251 39.3326C20.2109 48.4858 23.4882 51.3759 24.97 52.2346" stroke="#9ADAF3" stroke-width="2" stroke-linecap="round" stroke-dasharray="3 3"/>
<rect width="2.42058" height="44.918" rx="1" transform="matrix(0.965696 -0.259674 0.257966 0.966154 58.7552 48.8066)" fill="#9ADAF3"/>
<path d="M65.1037 77.4795C64.8528 76.7337 65.0441 75.884 65.5134 74.9247C66.1411 73.6416 66.8828 73.8363 67.7702 73.9313" stroke="#AAAAAA" stroke-width="2" stroke-linecap="round"/>
<path d="M112.573 28.0024C112.573 12.8241 127.698 -2.96165 152.503 1.89525C177.308 6.75216 178.916 38.9134 165.208 34.6808C157.343 32.2524 158.553 23.1451 165.208 19.5023C170.532 16.588 180.333 16.4667 197.273 18.2882" stroke="#9ADAF3" stroke-width="2" stroke-linecap="round" stroke-dasharray="4 4"/>
<path d="M122.858 94.181H132.386C132.852 94.181 133.065 93.6011 132.71 93.2999L125.883 87.5024" stroke="#AAAAAA" stroke-width="2" stroke-linecap="round"/>
<path d="M153.713 94.181H144.184C143.718 94.181 143.505 93.6011 143.86 93.2999L150.688 87.5024" stroke="#AAAAAA" stroke-width="2" stroke-linecap="round"/>
<path d="M140.689 104.067C139.862 102.631 140.379 100.78 141.812 99.9489C143.246 99.1183 145.102 99.5953 145.928 101.031L147.457 103.689L142.218 106.725L140.689 104.067Z" fill="#CCCCCC"/>
<path d="M131.933 103.895C132.593 105.717 135.893 107.538 139.193 107.538C142.493 107.538 145.793 105.717 146.453 103.895" stroke="#AAAAAA" stroke-width="2" stroke-linecap="round"/>
</svg>
